<svg display="none" xmlns="http://www.w3.org/2000/svg">
  <svg>
    <symbol id="cart" viewBox="0 0 18 18">
      <g>
        <path d="M4 4.5H17C17.037 4.50005 18 4.50127 18 5.5L17 11.5C16.911 11.991 16.5709 12.5 16.0642 12.5H6L6.09506 13.7985C6.16424 14.1291 6.45721 14.5 6.79145 14.5H15.6066C15.6443 14.5 15.6808 14.5054 15.7158 14.5155C16.441 14.6204 17 15.2462 17 16C17 16.8271 16.3271 17.5 15.5 17.5C14.6729 17.5 14 16.8271 14 16C14 15.8248 14.0302 15.6565 14.0857 15.5H7.91434C7.9698 15.6564 8 15.8248 8 16C8 16.8271 7.32711 17.5 6.5 17.5C5.67289 17.5 5 16.8271 5 16C5 15.5183 5.2282 15.089 5.58216 14.8143C5.39546 14.568 5.26019 14.2794 5.19962 13.9905L4.80856 12.1269L2 1.5H0.457618C0.204824 1.5 0 1.21822 0 0.962647C0 0.707075 0.204824 0.5 0.457618 0.5H2.56171C2.77221 0.5 2.95559 0.645345 3.00603 0.852063L4 4.5Z" fill="white"/>
      </g>
    </symbol>
    <symbol id="arrow" viewBox="0 0 20 20">
    <g>
    <path fill-rule="evenodd" clip-rule="evenodd" d="M3.01352 10V11H14.0135V14L18.0135 10.5L14.0135 7V10H3.01352Z" fill="white"/>
    </g>
    </symbol>
    <symbol id="facebook" viewBox="0 0 20 20">
    <g>
    <path fill-rule="evenodd" clip-rule="evenodd" d="M14.6234 1.00375L12.2249 1C9.5302 1 7.78878 2.73871 7.78878 5.42982V7.47227H5.37715C5.16875 7.47227 5 7.63668 5 7.83949V10.7988C5 11.0016 5.16895 11.1658 5.37715 11.1658H7.78878V18.633C7.78878 18.8358 7.95753 19 8.16593 19H11.3124C11.5208 19 11.6896 18.8356 11.6896 18.633V11.1658H14.5093C14.7177 11.1658 14.8865 11.0016 14.8865 10.7988L14.8876 7.83949C14.8876 7.74211 14.8478 7.64886 14.7772 7.57994C14.7066 7.51103 14.6103 7.47227 14.5103 7.47227H11.6896V5.74086C11.6896 4.90868 11.8933 4.48622 13.0073 4.48622L14.623 4.48566C14.8312 4.48566 15 4.32124 15 4.11863V1.37077C15 1.16835 14.8314 1.00412 14.6234 1.00375Z" fill="white"/>
    </g>
    </symbol>
    <symbol id="twitter" viewBox="0 0 20 20">
    <g>
    <path fill-rule="evenodd" clip-rule="evenodd" d="M18.979 4.36284C18.9532 4.33213 18.9106 4.32171 18.8743 4.33846C18.3361 4.57945 17.77 4.7527 17.1869 4.85505C17.8059 4.38498 18.2672 3.73403 18.5037 2.98761C18.5151 2.95188 18.5033 2.9128 18.4744 2.88954C18.4453 2.86628 18.4049 2.8633 18.373 2.88247C17.6758 3.29987 16.9206 3.59409 16.1276 3.75729C15.4248 3.0211 14.4435 2.59998 13.4278 2.59998C11.3623 2.59998 9.68211 4.29603 9.68211 6.38083C9.68211 6.63299 9.70626 6.88273 9.75419 7.12521C6.89336 6.94693 4.21836 5.56053 2.3995 3.30862C2.38088 3.28554 2.35268 3.2727 2.32318 3.27568C2.29387 3.27791 2.26769 3.29466 2.25294 3.32016C1.9211 3.89481 1.74578 4.55228 1.74578 5.2211C1.74578 6.38027 2.2675 7.46408 3.15591 8.17924C2.69853 8.12378 2.25183 7.97844 1.84902 7.75271C1.82192 7.73727 1.78818 7.73745 1.76108 7.75327C1.73398 7.7689 1.71683 7.79793 1.7161 7.82957L1.71573 7.87795C1.71573 9.54274 2.8025 11.0045 4.3487 11.4898C3.94145 11.5561 3.51891 11.5516 3.10356 11.4716C3.07295 11.4658 3.04088 11.4764 3.01986 11.5003C2.99903 11.5241 2.99202 11.5574 3.00161 11.5875C3.46526 13.0484 4.75354 14.0728 6.25309 14.2005C5.00224 15.1255 3.5237 15.6129 1.96147 15.6129C1.67369 15.6129 1.38389 15.5956 1.09998 15.5619C1.05942 15.5573 1.01923 15.5817 1.00522 15.6209C0.991209 15.6606 1.00614 15.7049 1.04117 15.7274C2.73171 16.8218 4.68643 17.4 6.69425 17.4C13.2619 17.4 17.1865 12.0148 17.1865 6.80866C17.1865 6.66369 17.1837 6.51947 17.178 6.37562C17.8865 5.85251 18.4947 5.21217 18.9851 4.47096C19.007 4.43783 19.0046 4.39373 18.979 4.36284Z" fill="white"/>
    </g>
    </symbol>
    <symbol id="instagram" viewBox="0 0 20 20">
    <g>
    <path fill-rule="evenodd" clip-rule="evenodd" d="M10 1.5C12.3085 1.5 12.5979 1.50978 13.5045 1.55115C14.4093 1.59242 15.0272 1.73612 15.5678 1.94626C16.1268 2.16345 16.6008 2.45409 17.0734 2.92663C17.5459 3.3992 17.8366 3.87323 18.0538 4.43218C18.2639 4.97284 18.4076 5.59073 18.4488 6.49546C18.4902 7.40208 18.5 7.69154 18.5 10C18.5 12.3085 18.4902 12.5979 18.4488 13.5045C18.4076 14.4093 18.2639 15.0272 18.0538 15.5678C17.8366 16.1268 17.5459 16.6008 17.0734 17.0734C16.6008 17.5459 16.1268 17.8366 15.5678 18.0538C15.0272 18.2639 14.4093 18.4076 13.5045 18.4488C12.5979 18.4902 12.3085 18.5 10 18.5C7.69154 18.5 7.40208 18.4902 6.49546 18.4488C5.59073 18.4076 4.97284 18.2639 4.43218 18.0538C3.87323 17.8366 3.3992 17.5459 2.92663 17.0734C2.45409 16.6008 2.16345 16.1268 1.94626 15.5678C1.73612 15.0272 1.59242 14.4093 1.55115 13.5045C1.50978 12.5979 1.5 12.3085 1.5 10C1.5 7.69154 1.50978 7.40208 1.55115 6.49546C1.59242 5.59073 1.73612 4.97284 1.94626 4.43218C2.16345 3.87323 2.45409 3.3992 2.92663 2.92663C3.3992 2.45409 3.87323 2.16345 4.43218 1.94626C4.97284 1.73612 5.59073 1.59242 6.49546 1.55115C7.40208 1.50978 7.69154 1.5 10 1.5ZM9.99734 12.8298C11.5616 12.8298 12.8298 11.5616 12.8298 9.99734C12.8298 8.433 11.5616 7.16488 9.99734 7.16488C8.433 7.16488 7.16488 8.433 7.16488 9.99734C7.16488 11.5616 8.433 12.8298 9.99734 12.8298ZM9.99734 5.63383C12.4072 5.63383 14.3608 7.58742 14.3608 9.99734C14.3608 12.4072 12.4072 14.3608 9.99734 14.3608C7.58742 14.3608 5.63383 12.4072 5.63383 9.99734C5.63383 7.58742 7.58742 5.63383 9.99734 5.63383ZM15.8556 5.37224C15.8556 5.94601 15.3904 6.41111 14.8166 6.41111C14.2429 6.41111 13.7778 5.94601 13.7778 5.37224C13.7778 4.79847 14.2429 4.33333 14.8166 4.33333C15.3904 4.33333 15.8556 4.79847 15.8556 5.37224Z" fill="white"/>
    </g>
    </symbol>
    <symbol id="top" viewBox="0 0 40 40">
    <g>
    <path opacity="0.5" d="M20 0.5C30.7696 0.5 39.5 9.23045 39.5 20C39.5 30.7696 30.7696 39.5 20 39.5C9.23045 39.5 0.5 30.7696 0.5 20C0.5 9.23045 9.23045 0.5 20 0.5Z" stroke="#D8BFFF"/>
    <path fill-rule="evenodd" clip-rule="evenodd" d="M20 18.1526L16.311 21.8602C16.1255 22.0466 15.8247 22.0466 15.6392 21.8602C15.4536 21.6737 15.4536 21.3714 15.6392 21.185L19.6641 17.1398C19.8496 16.9534 20.1504 16.9534 20.3359 17.1398L24.3608 21.185C24.5464 21.3714 24.5464 21.6737 24.3608 21.8602C24.1753 22.0466 23.8745 22.0466 23.689 21.8602L20 18.1526Z" fill="white"/>
    </g>
    </symbol>
  </svg>
